<svg width="151" height="196" fill="none" xmlns="http://www.w3.org/2000/svg"><path d="M83.523 196v-93.091h56.182v10h-44.91v31.455h42v10h-42V186h45.637v10h-56.91z" fill="#000"/><path d="M59.063 186v10H.88v-10h58.181z" fill="#000" opacity=".3"><animate attributeType="XML" attributeName="opacity" values="1;0;1" dur="1" repeatCount="indefinite"/></path><path d="M.71 94V.91h32.546C39.74.91 45.089 2.03 49.3 4.272c4.212 2.212 7.349 5.197 9.41 8.954 2.06 3.727 3.09 7.864 3.09 12.41 0 4-.712 7.302-2.136 9.908-1.394 2.606-3.243 4.667-5.546 6.182a25.238 25.238 0 01-7.409 3.364V46c2.849.182 5.712 1.182 8.591 3 2.879 1.818 5.288 4.424 7.227 7.818 1.94 3.394 2.91 7.546 2.91 12.455 0 4.666-1.061 8.863-3.182 12.59-2.121 3.728-5.47 6.683-10.046 8.864C47.635 92.91 41.68 94 34.347 94H.71zm11.273-10h22.364c7.363 0 12.59-1.424 15.681-4.273 3.122-2.879 4.682-6.363 4.682-10.454 0-3.152-.803-6.06-2.409-8.727-1.606-2.697-3.894-4.849-6.864-6.455-2.97-1.636-6.484-2.455-10.545-2.455H11.983V84zm0-42.182h20.909c3.394 0 6.455-.666 9.182-2 2.757-1.333 4.94-3.212 6.545-5.636 1.637-2.424 2.455-5.273 2.455-8.546 0-4.09-1.424-7.56-4.273-10.409-2.848-2.879-7.364-4.318-13.545-4.318H11.983v30.91zM83.96 94V.91h31.455c7.273 0 13.242 1.242 17.909 3.726 4.667 2.455 8.121 5.834 10.364 10.137 2.242 4.303 3.363 9.197 3.363 14.681 0 5.485-1.121 10.349-3.363 14.591-2.243 4.243-5.682 7.576-10.319 10-4.636 2.394-10.56 3.591-17.772 3.591H90.142V47.455h25.091c4.97 0 8.97-.728 12-2.182 3.061-1.455 5.273-3.515 6.636-6.182 1.394-2.697 2.091-5.91 2.091-9.637 0-3.727-.697-6.984-2.091-9.772-1.394-2.788-3.621-4.94-6.681-6.455-3.061-1.545-7.107-2.318-12.137-2.318H95.233V94H83.96zm43.818-41.818L150.688 94h-13.091l-22.546-41.818h12.727z" fill="#000"/></svg>